<svg width="304" height="217" viewBox="0 0 304 217" fill="none" xmlns="http://www.w3.org/2000/svg">
    <g clip-path="url(#clip0_2525_1091)">
        <path d="M109.637 98.4152L100.465 103.994L16.3979 84.4586L67.6671 52.7856L109.622 63.0252" stroke="#757575" stroke-width="1.78018" stroke-linecap="round" stroke-linejoin="round"/>
        <path d="M94.9145 94.2393L77.3584 90.0772L88.0644 83.5439L105.503 87.8021L94.9145 94.2393Z" stroke="#757575" stroke-width="1.78018" stroke-linecap="round" stroke-linejoin="round"/>
        <path d="M16.4336 116.898V84.4556L100.433 104.002V130.655" stroke="#757575" stroke-width="1.78018" stroke-linecap="round" stroke-linejoin="round"/>
        <path d="M100.433 130.655V104.002L109.622 98.3945" stroke="#757575" stroke-width="1.78018" stroke-linecap="round" stroke-linejoin="round"/>
        <path d="M57.5486 196.052L1.44446 182.935V126.116L57.5486 139.236V196.052Z" stroke="#757575" stroke-width="1.78018" stroke-linecap="round" stroke-linejoin="round"/>
        <path d="M45.5893 171.73L30.1801 168.145C29.7208 168.038 29.3932 167.625 29.3932 167.152V151.529C29.3932 150.874 30.0021 150.389 30.6429 150.539L46.0522 154.124C46.5114 154.231 46.839 154.644 46.839 155.118V170.74C46.839 171.396 46.2302 171.88 45.5893 171.73Z" stroke="#757575" stroke-width="1.78018" stroke-linecap="round" stroke-linejoin="round"/>
        <path d="M73.3316 186.065L57.5486 196.051V139.235L91.3435 118.617V136.277" stroke="#757575" stroke-width="1.78018" stroke-linecap="round" stroke-linejoin="round"/>
        <path d="M9.2915 157.92L19.0682 160.252" stroke="#757575" stroke-width="1.78018" stroke-linecap="round" stroke-linejoin="round"/>
        <path d="M9.2915 165.429L19.0682 167.761" stroke="#757575" stroke-width="1.78018" stroke-linecap="round" stroke-linejoin="round"/>
        <path d="M9.2915 172.938L19.0682 175.27" stroke="#757575" stroke-width="1.78018" stroke-linecap="round" stroke-linejoin="round"/>
        <path d="M261.347 126.275L278.789 130.534L201.23 177.708L72.6516 147.833L109.622 124.969" stroke="#757575" stroke-width="1.78018" stroke-linecap="round" stroke-linejoin="round"/>
        <path d="M201.181 215.811L72.6516 185.904V147.809L201.181 177.716V215.811Z" stroke="#757575" stroke-width="1.78018" stroke-linecap="round" stroke-linejoin="round"/>
        <path d="M278.789 166.849L201.18 215.811V177.716L278.789 130.534V166.849Z" stroke="#757575" stroke-width="1.78018" stroke-linecap="round" stroke-linejoin="round"/>
        <path d="M261.343 38.3207L173.118 16.0399L196.958 0.890625L285.184 23.1713L261.343 38.3207Z" stroke="#757575" stroke-width="1.78018" stroke-linecap="round" stroke-linejoin="round"/>
        <path d="M144.168 151.408L129.03 160.928L144.927 164.567L159.777 155.192" stroke="#757575" stroke-width="1.78018" stroke-linecap="round" stroke-linejoin="round"/>
        <path d="M261.343 63.079V127.436L198.738 164.642V75.526L261.343 38.3203" stroke="#757575" stroke-width="1.78018" stroke-linecap="round" stroke-linejoin="round"/>
        <path d="M218.626 129.077L206.827 135.97V119.457L218.626 112.561V129.077Z" stroke="#757575" stroke-width="1.78018" stroke-linecap="round" stroke-linejoin="round"/>
        <path d="M226.868 75.5259L226.844 147.94L236.015 142.489V75.5259" stroke="#757575" stroke-width="1.78018" stroke-linecap="round" stroke-linejoin="round"/>
        <path d="M261.343 38.3203L198.738 75.526H240.401L303.007 38.3203H261.343Z" stroke="#757575" stroke-width="1.78018" stroke-linecap="round" stroke-linejoin="round"/>
        <path d="M124.17 45.2383L173.118 16.0398L145.048 4.89941L81.5525 42.7745L109.622 53.9148" stroke="#757575" stroke-width="1.78018" stroke-linecap="round" stroke-linejoin="round"/>
        <path d="M173.118 16.0396V56.884" stroke="#757575" stroke-width="1.78018" stroke-linecap="round" stroke-linejoin="round"/>
        <path d="M198.738 164.642L109.622 143.031V53.915L198.738 75.5264V164.642Z" stroke="#757575" stroke-width="1.78018" stroke-linecap="round" stroke-linejoin="round"/>
        <path d="M158.1 154.787V65.6715L146.703 62.9087L146.707 152.024L158.1 154.787Z" stroke="#757575" stroke-width="1.78018" stroke-linecap="round" stroke-linejoin="round"/>
        <path d="M198.738 75.526L109.622 53.9147L95.1424 38.3203L184.258 59.9317L198.738 75.526Z" stroke="#757575" stroke-width="1.78018" stroke-linecap="round" stroke-linejoin="round"/>
        <path d="M186.555 125.738L165.915 120.732" stroke="#757575" stroke-width="1.78018" stroke-linecap="round" stroke-linejoin="round"/>
        <path d="M186.555 134.596L165.915 129.622" stroke="#757575" stroke-width="1.78018" stroke-linecap="round" stroke-linejoin="round"/>
        <path d="M139.914 79.8096L119.274 74.8037" stroke="#757575" stroke-width="1.78018" stroke-linecap="round" stroke-linejoin="round"/>
        <path d="M130.753 86.4602L119.274 83.6938" stroke="#757575" stroke-width="1.78018" stroke-linecap="round" stroke-linejoin="round"/>
        <path d="M91.3435 118.617L35.0115 105.472L1.44446 126.115L57.5486 139.235L68.7922 132.374L91.3435 118.617Z" stroke="#757575" stroke-width="1.78018" stroke-linecap="round" stroke-linejoin="round"/>
        <path d="M144.92 202.724H144.927V164.568L128.905 160.9V198.996L144.92 202.724Z" stroke="#757575" stroke-width="1.78018" stroke-linecap="round" stroke-linejoin="round"/>
        <path d="M18.203 115.819L74.446 128.925" stroke="#757575" stroke-width="1.78018" stroke-linecap="round" stroke-linejoin="round"/>
    </g>
    <defs>
        <clipPath id="clip0_2525_1091">
            <rect width="303.342" height="216.701" fill="white" transform="translate(0.554352)"/>
        </clipPath>
    </defs>
</svg>
